<svg xmlns="http://www.w3.org/2000/svg" width="16.382" height="21.704" viewBox="0 0 16.382 21.704">
  <g transform="translate(0)">
    <path  d="M171.9,161.552a1.536,1.536,0,0,0-.528-.286,3.115,3.115,0,0,0-.682-.066h-1.012a.582.582,0,0,0-.374.11.54.54,0,0,0-.11.374v2.837a.652.652,0,0,0,.044.308.273.273,0,0,0,.132.176.618.618,0,0,0,.33.066h1.012a3.3,3.3,0,0,0,.484-.044,2.661,2.661,0,0,0,.4-.11,1.232,1.232,0,0,0,.33-.22,1.971,1.971,0,0,0,.33-.418,1.878,1.878,0,0,0,.2-.528,2.841,2.841,0,0,0,.066-.638A1.93,1.93,0,0,0,171.9,161.552Zm-.572,2.727a.891.891,0,0,1-.2.11.967.967,0,0,1-.22.044h-.9v-2.639h.528a1.734,1.734,0,0,1,.616.088.687.687,0,0,1,.418.374,1.784,1.784,0,0,1,.176.858A1.509,1.509,0,0,1,171.333,164.279Z" transform="translate(-162.559 -152.338)" fill="#485cf1"/>
    <path  d="M64.738,4.332l-.022-.022V4.288L60.538.11,60.516.088a.022.022,0,0,1-.022-.022.022.022,0,0,1-.022-.022A.362.362,0,0,0,60.252,0H49.9a1.463,1.463,0,0,0-1.034.418L48.84.44A1.536,1.536,0,0,0,48.4,1.5V20.209a1.5,1.5,0,0,0,.44,1.056,1.536,1.536,0,0,0,1.056.44H63.287a1.5,1.5,0,0,0,1.056-.44,1.536,1.536,0,0,0,.44-1.056V4.552A.651.651,0,0,0,64.738,4.332ZM60.67,1.583l2.485,2.485H61.33a.6.6,0,0,1-.462-.2.686.686,0,0,1-.2-.462Zm3.167,18.625a.6.6,0,0,1-.572.572H49.9a.632.632,0,0,1-.4-.154.53.53,0,0,1-.154-.4V1.473a.551.551,0,0,1,.176-.4l.022-.022A.624.624,0,0,1,49.917.9h9.851V3.386a1.6,1.6,0,0,0,.484,1.143,1.631,1.631,0,0,0,1.143.462h2.441Z" transform="translate(-48.4)" fill="#485cf1"/>
    <path  d="M106.195,161.886a.849.849,0,0,0-.418-.22,2.725,2.725,0,0,0-.682-.066h-1.012a.54.54,0,0,0-.374.11c-.088.066-.11.2-.11.374v2.991a.559.559,0,0,0,.11.352.338.338,0,0,0,.286.11.387.387,0,0,0,.286-.132.56.56,0,0,0,.11-.352v-1.1h.726a1.657,1.657,0,0,0,1.077-.308,1.113,1.113,0,0,0,.374-.9,1.29,1.29,0,0,0-.088-.506A1.535,1.535,0,0,0,106.195,161.886Zm-.528,1.231a.558.558,0,0,1-.286.2,1.461,1.461,0,0,1-.462.066h-.528v-1.187h.528a1.087,1.087,0,0,1,.7.176.547.547,0,0,1,.154.418A.732.732,0,0,1,105.667,163.117Z" transform="translate(-100.565 -152.716)" fill="#485cf1"/>
    <path  d="M242.484,160.8a.731.731,0,0,0-.286.088.266.266,0,0,0-.154.154.52.52,0,0,0-.044.286V164.3a.516.516,0,0,0,.11.352.338.338,0,0,0,.286.11.463.463,0,0,0,.286-.11.56.56,0,0,0,.11-.352v-1.275h1.3a.35.35,0,0,0,.264-.088.255.255,0,0,0,.088-.22.282.282,0,0,0-.088-.22.471.471,0,0,0-.264-.088h-1.3v-.99h1.539a.373.373,0,0,0,.286-.088.319.319,0,0,0,0-.44.373.373,0,0,0-.286-.088Z" transform="translate(-231.357 -151.96)" fill="#485cf1"/>
  </g>
</svg>
