<svg xmlns="http://www.w3.org/2000/svg" width="48.001" height="67.298"><defs><filter id="a" x="0" y="0" width="48.001" height="67.298" filterUnits="userSpaceOnUse"><feOffset dy="3"/><feGaussianBlur stdDeviation="3" result="blur"/><feFlood flood-opacity=".161"/><feComposite operator="in" in2="blur"/><feComposite in="SourceGraphic"/></filter></defs><g filter="url(#a)" data-name="Group 48"><path data-name="Subtraction 1" d="M24 55.3c-.005 0-.014-.006-.026-.017A159.2 159.2 0 0116.2 40.911C10.249 28.746 9 23.368 9 21a14.9 14.9 0 014.393-10.606A14.9 14.9 0 0124 6a14.9 14.9 0 0110.607 4.393A14.9 14.9 0 0139 21c0 4.335-4.016 13.391-7.385 20.224-3.763 7.633-7.462 14.032-7.616 14.075zM24 15a6.007 6.007 0 00-6 6 6.007 6.007 0 006 6 6.007 6.007 0 006-6 6.007 6.007 0 00-6-6z" fill="#485cf1"/></g></svg>