<svg xmlns="http://www.w3.org/2000/svg" width="16.382" height="21.704"><g fill="#485cf1"><path d="M9.341 9.214a1.536 1.536 0 00-.528-.286 3.115 3.115 0 00-.682-.066H7.119a.582.582 0 00-.374.11.54.54 0 00-.11.374v2.837a.652.652 0 00.044.308.273.273 0 00.132.176.618.618 0 00.33.066h1.012a3.3 3.3 0 00.484-.044 2.661 2.661 0 00.4-.11 1.232 1.232 0 00.33-.22 1.971 1.971 0 00.33-.418 1.878 1.878 0 00.2-.528 2.841 2.841 0 00.066-.638 1.93 1.93 0 00-.622-1.561zm-.572 2.727a.891.891 0 01-.2.11.967.967 0 01-.22.044h-.9V9.456h.528a1.734 1.734 0 01.616.088.687.687 0 01.418.374 1.784 1.784 0 01.176.858 1.509 1.509 0 01-.413 1.165z"/><path d="M16.338 4.332l-.022-.022v-.022L12.138.11l-.022-.022a.022.022 0 01-.022-.022.022.022 0 01-.022-.022.362.362 0 00-.22-.044H1.5A1.463 1.463 0 00.466.418L.44.44A1.536 1.536 0 000 1.5v18.709a1.5 1.5 0 00.44 1.056 1.536 1.536 0 001.056.44h13.391a1.5 1.5 0 001.056-.44 1.536 1.536 0 00.44-1.056V4.552a.651.651 0 00-.045-.22zM12.27 1.583l2.485 2.485H12.93a.6.6 0 01-.462-.2.686.686 0 01-.2-.462zm3.167 18.625a.6.6 0 01-.572.572H1.5a.632.632 0 01-.4-.154.53.53 0 01-.154-.4V1.473a.551.551 0 01.176-.4l.022-.022A.624.624 0 011.517.9h9.851v2.486a1.6 1.6 0 00.484 1.143 1.631 1.631 0 001.143.462h2.441z"/><path d="M5.63 9.17a.849.849 0 00-.418-.22 2.725 2.725 0 00-.682-.066H3.518a.54.54 0 00-.374.11c-.088.066-.11.2-.11.374v2.991a.559.559 0 00.11.352.338.338 0 00.286.11.387.387 0 00.286-.132.56.56 0 00.11-.352v-1.1h.726a1.657 1.657 0 001.077-.308 1.113 1.113 0 00.374-.9 1.29 1.29 0 00-.088-.506 1.535 1.535 0 00-.285-.353zm-.528 1.231a.558.558 0 01-.286.2 1.461 1.461 0 01-.462.066h-.528V9.48h.528a1.087 1.087 0 01.7.176.547.547 0 01.154.418.732.732 0 01-.106.327zm6.025-1.561a.731.731 0 00-.286.088.266.266 0 00-.154.154.52.52 0 00-.044.286v2.972a.516.516 0 00.11.352.338.338 0 00.286.11.463.463 0 00.286-.11.56.56 0 00.11-.352v-1.275h1.3a.35.35 0 00.264-.088.255.255 0 00.088-.22.282.282 0 00-.088-.22.471.471 0 00-.264-.088h-1.3v-.99h1.539a.373.373 0 00.286-.088.319.319 0 000-.44.373.373 0 00-.286-.088z"/></g></svg>