<svg xmlns="http://www.w3.org/2000/svg" width="35.026" height="32" viewBox="0 0 35.026 32">
  <path id="portfolio" d="M32.038,26.052H23.527V24.313a1.777,1.777,0,0,0,.035-3.356A18.117,18.117,0,0,0,17.513,20a18.117,18.117,0,0,0-6.049.957,1.777,1.777,0,0,0,.035,3.356v1.739H2.988A2.992,2.992,0,0,0,0,29.04V49.012A2.992,2.992,0,0,0,2.988,52h29.05a2.992,2.992,0,0,0,2.988-2.988V29.04A2.992,2.992,0,0,0,32.038,26.052ZM11.848,22.024a16.976,16.976,0,0,1,5.665-.89,16.976,16.976,0,0,1,5.665.89.643.643,0,1,1-.436,1.21,15.91,15.91,0,0,0-5.229-.814,15.909,15.909,0,0,0-5.229.814.643.643,0,1,1-.436-1.21Zm.785,2.289.035-.012a14.755,14.755,0,0,1,4.844-.747,14.754,14.754,0,0,1,4.844.747l.035.011v1.739H12.634ZM1.135,29.04a1.856,1.856,0,0,1,1.853-1.853h29.05a1.856,1.856,0,0,1,1.853,1.853v5.447a6.7,6.7,0,0,1-6.7,6.7H19.9v-.643a1.78,1.78,0,0,0-1.778-1.778h-1.21a1.78,1.78,0,0,0-1.778,1.778v.643H7.83a6.7,6.7,0,0,1-6.7-6.7ZM18.761,41.749a.644.644,0,0,1-.643.643h-1.21a.644.644,0,0,1-.643-.643v-1.21a.644.644,0,0,1,.643-.643h1.21a.644.644,0,0,1,.643.643Zm-2.5,1.657a1.768,1.768,0,0,0,.643.121h1.21a1.769,1.769,0,0,0,.643-.121v.764a.644.644,0,0,1-.643.643h-1.21a.644.644,0,0,1-.643-.643Zm17.626,5.605a1.856,1.856,0,0,1-1.853,1.853H2.988a1.856,1.856,0,0,1-1.853-1.853V38.543a7.833,7.833,0,0,0,6.7,3.774h7.3V44.17a1.78,1.78,0,0,0,1.778,1.778h1.21A1.78,1.78,0,0,0,19.9,44.17V42.317h7.3a7.833,7.833,0,0,0,6.7-3.774Z" transform="translate(0 -20)" fill="#485cf1"/>
</svg>
