<svg xmlns="http://www.w3.org/2000/svg" width="35.026" height="32"><path d="M32.038 6.052h-8.511V4.313a1.777 1.777 0 00.035-3.356A18.117 18.117 0 0017.513 0a18.117 18.117 0 00-6.049.957 1.777 1.777 0 00.035 3.356v1.739H2.988A2.992 2.992 0 000 9.04v19.972A2.992 2.992 0 002.988 32h29.05a2.992 2.992 0 002.988-2.988V9.04a2.992 2.992 0 00-2.988-2.988zm-20.19-4.028a16.976 16.976 0 015.665-.89 16.976 16.976 0 015.665.89.643.643 0 11-.436 1.21 15.91 15.91 0 00-5.229-.814 15.909 15.909 0 00-5.229.814.643.643 0 11-.436-1.21zm.785 2.289l.035-.012a14.755 14.755 0 014.844-.747 14.754 14.754 0 014.844.747l.035.011v1.739h-9.757zM1.135 9.04a1.856 1.856 0 011.853-1.853h29.05a1.856 1.856 0 011.853 1.853v5.447a6.7 6.7 0 01-6.7 6.7H19.9v-.643a1.78 1.78 0 00-1.778-1.778h-1.21a1.78 1.78 0 00-1.778 1.778v.643H7.83a6.7 6.7 0 01-6.7-6.7zm17.626 12.709a.644.644 0 01-.643.643h-1.21a.644.644 0 01-.643-.643v-1.21a.644.644 0 01.643-.643h1.21a.644.644 0 01.643.643zm-2.5 1.657a1.768 1.768 0 00.643.121h1.21a1.769 1.769 0 00.643-.121v.764a.644.644 0 01-.643.643h-1.21a.644.644 0 01-.643-.643zm17.626 5.605a1.856 1.856 0 01-1.853 1.853H2.988a1.856 1.856 0 01-1.853-1.853V18.543a7.833 7.833 0 006.7 3.774h7.3v1.853a1.78 1.78 0 001.778 1.778h1.21A1.78 1.78 0 0019.9 24.17v-1.853h7.3a7.833 7.833 0 006.7-3.774z" fill="#485cf1"/></svg>