<svg xmlns="http://www.w3.org/2000/svg" width="53" height="52"><g opacity="-.5" fill="#fff"><path d="M16.759 48.746c-.887.349-.9 1.793-1.88 2.081-.52.19-.417 1.05.196.92.612-.13.947-.442 1.341-.846.395-.404 1.063-1.027 1.086-1.672a.518.518 0 00-.743-.483zm5.049-6.758c-.488.344-.696.869-.905 1.394-.362.557-.57 1.082-.933 1.64a.389.389 0 00.65.421c.455-.497.757-.961 1.119-1.519.301-.464.756-.96.904-1.393.056-.492-.408-.794-.835-.543zm4.24-7.546c-.97 1.086-.983 2.53-1.674 3.798-.242.372.316.734.557.362.302-.464.57-1.082.872-1.546.33-.71.752-1.36.988-2.132.242-.371-.409-.794-.743-.482zm2.305-7.616c-.116.585.167 1.165.205 1.718.037.552-.018 1.045-.227 1.57-.149.431.436.547.617.268.395-.404.51-.989.627-1.574.023-.645-.02-1.597-.363-2.084-.251-.428-.804-.39-.86.102zm-2.785-9.336c-.023.645.38 1.04.724 1.527.47.701.725 1.528 1.041 2.261.098.46.804.39.767-.163-.163-.766-.326-1.532-.55-2.205-.283-.58-.571-1.56-1.189-1.829-.339-.088-.798.01-.793.409zm-4.608-5.105c-.432-.149-.855.501-.483.743.901.849 2.01 1.173 2.638 2.241.218.274.645.023.488-.344-.535-1.007-1.408-2.102-2.644-2.64zm-8.545-2.908c-.738-.083-.817 1.054-.079 1.137 1.078.172 2.276.157 3.325.575.372.241.734-.316.362-.558-.961-.756-2.317-1.108-3.608-1.154zm-4.09 2.23c-.738-.083-1.444-.013-2.084.363-.58.284-1.495.878-1.332 1.644.065.307.344.488.557.362.46-.097.729-.715 1.063-1.026.548-.437 1.16-.567 1.806-.544.585.116.575-.683-.01-.799zm-6.929 6.197a6.955 6.955 0 00-.868 1.946c-.088.339.163.766.623.668.306-.065.668-.622.756-.961.12-.186-.005-.4-.19-.52.027-.246.208-.525.329-.71a.389.389 0 00-.65-.423zm-.095 7.466c-.482.743-.719 1.514-.556 2.28.098.46.256.826.474 1.1.251.427.535 1.008.906 1.249.372.241 1.105-.075.915-.595-.13-.613-.813-1.188-1.097-1.768-.376-.641-.26-1.226.009-1.844.24-.371-.256-.826-.65-.422zm5.487 6.6c.228 1.073 1.157 1.676 1.932 2.312a.61.61 0 00.646.023c.213-.126.273-.219.301-.465a.61.61 0 00-.283-.58c-.71-.33-1.607-.78-1.863-1.606-.218-.274-.831-.143-.733.316zm8.586 3.86c-.525-.21-1.05-.418-1.574-.626-.279-.181-.58.283-.302.464.497.455.994.91 1.612 1.179.465.301 1.235.538 1.69.04.181-.278.27-.617-.01-.798-.524-.208-.984-.11-1.416-.26zm7.866.09c-1.133.32-2.26 1.04-3.403.562-.279-.18-.58.284-.302.465 1.115.724 3.079.547 4.02-.294.335-.311.144-.831-.315-.734zm9.08-3.612c-1.1.474-2.195 1.347-3.263 1.974-.427.251-.144.832.283.58 1.161-.566 2.414-1.073 3.51-1.946.367-.158-.103-.86-.53-.608zm5.248-8.081c-1.095.873-1.689 2.6-1.795 3.984-.055.493.683.576.831.144.26-1.416 1.262-2.35 1.707-3.645-.005-.4-.469-.702-.743-.483zm4.839-8.875c-.209.525-.324 1.11-.593 1.727l-.627 1.575a.346.346 0 00.558.361c.91-.994 1.786-2.14 1.647-3.552.022-.646-.836-.543-.985-.111zm4.798-7.185c-.241.371-.297.864-.445 1.296-.27.617-.817 1.054-1.304 1.398-.488.343.075 1.105.562.76 1.068-.626 2.525-2.057 2.172-3.343-.158-.367-.776-.636-.985-.111z" opacity=".5"/><path d="M50.926.81c-1.5.48-2.967 1.112-4.373 1.65-1.407.54-3.306 1.024-4.369 2.05-.454.498-.32 1.51.572 1.56 1.198-.014 2.266-.641 3.366-1.116 1.314-.599 2.72-1.138 3.974-1.645.108 3.9.003 7.926.664 11.789.163.766 1.421.659 1.411-.14-.206-4.36-.105-8.785.088-13.15-.038-.552-.66-1.22-1.333-.997z" opacity=".5"/></g></svg>